<svg xmlns="http://www.w3.org/2000/svg" xmlns:xlink="http://www.w3.org/1999/xlink" width="500" zoomAndPan="magnify" viewBox="0 0 375 374.999991" height="500" preserveAspectRatio="xMidYMid meet" version="1.2"><defs><clipPath id="699bdb2b64"><path d="M 129.085938 174.476562 L 173.765625 174.476562 L 173.765625 219.152344 L 129.085938 219.152344 Z M 129.085938 174.476562 "/></clipPath><clipPath id="e443426ef7"><path d="M 151.425781 174.476562 C 139.085938 174.476562 129.085938 184.476562 129.085938 196.816406 C 129.085938 209.152344 139.085938 219.152344 151.425781 219.152344 C 163.761719 219.152344 173.765625 209.152344 173.765625 196.816406 C 173.765625 184.476562 163.761719 174.476562 151.425781 174.476562 Z M 151.425781 174.476562 "/></clipPath><clipPath id="d22547df18"><path d="M 112.472656 187.097656 L 190.515625 187.097656 L 190.515625 223.355469 L 112.472656 223.355469 Z M 112.472656 187.097656 "/></clipPath><clipPath id="c0c93d8551"><path d="M 151.425781 187.097656 L 190.375 223.355469 L 112.472656 223.355469 Z M 151.425781 187.097656 "/></clipPath><clipPath id="6d22748b50"><path d="M 146.003906 201.214844 L 151 201.214844 L 151 207 L 146.003906 207 Z M 146.003906 201.214844 "/></clipPath><clipPath id="56c2f4f3f0"><path d="M 152 201.214844 L 157.207031 201.214844 L 157.207031 207 L 152 207 Z M 152 201.214844 "/></clipPath><clipPath id="d09c2b3cb2"><path d="M 146.003906 207 L 151 207 L 151 212.417969 L 146.003906 212.417969 Z M 146.003906 207 "/></clipPath><clipPath id="eca61cb760"><path d="M 152 207 L 157.207031 207 L 157.207031 212.417969 L 152 212.417969 Z M 152 207 "/></clipPath></defs><g id="1145be49f4"><rect x="0" width="375" y="0" height="374.999991" style="fill:#ffffff;fill-opacity:1;stroke:none;"/><rect x="0" width="375" y="0" height="374.999991" style="fill:#ffffff;fill-opacity:1;stroke:none;"/><g clip-rule="nonzero" clip-path="url(#699bdb2b64)"><g clip-rule="nonzero" clip-path="url(#e443426ef7)"><path style=" stroke:none;fill-rule:nonzero;fill:#000000;fill-opacity:1;" d="M 129.085938 174.476562 L 173.765625 174.476562 L 173.765625 219.152344 L 129.085938 219.152344 Z M 129.085938 174.476562 "/></g></g><g clip-rule="nonzero" clip-path="url(#d22547df18)"><g clip-rule="nonzero" clip-path="url(#c0c93d8551)"><path style=" stroke:none;fill-rule:nonzero;fill:#ffffff;fill-opacity:1;" d="M 112.472656 187.097656 L 190.371094 187.097656 L 190.371094 223.355469 L 112.472656 223.355469 Z M 112.472656 187.097656 "/></g></g><g clip-rule="nonzero" clip-path="url(#6d22748b50)"><path style=" stroke:none;fill-rule:nonzero;fill:#000000;fill-opacity:1;" d="M 150.710938 201.214844 L 146.226562 201.214844 C 146.105469 201.214844 146.003906 201.316406 146.003906 201.4375 L 146.003906 205.921875 C 146.003906 206.042969 146.105469 206.144531 146.226562 206.144531 L 150.710938 206.144531 C 150.832031 206.144531 150.933594 206.042969 150.933594 205.921875 L 150.933594 201.4375 C 150.933594 201.316406 150.832031 201.214844 150.710938 201.214844 Z M 150.710938 201.214844 "/></g><g clip-rule="nonzero" clip-path="url(#56c2f4f3f0)"><path style=" stroke:none;fill-rule:nonzero;fill:#000000;fill-opacity:1;" d="M 156.984375 201.214844 L 152.503906 201.214844 C 152.378906 201.214844 152.277344 201.316406 152.277344 201.4375 L 152.277344 205.921875 C 152.277344 206.042969 152.378906 206.144531 152.503906 206.144531 L 156.984375 206.144531 C 157.109375 206.144531 157.207031 206.042969 157.207031 205.921875 L 157.207031 201.4375 C 157.207031 201.316406 157.109375 201.214844 156.984375 201.214844 Z M 156.984375 201.214844 "/></g><g clip-rule="nonzero" clip-path="url(#d09c2b3cb2)"><path style=" stroke:none;fill-rule:nonzero;fill:#000000;fill-opacity:1;" d="M 150.710938 207.488281 L 146.226562 207.488281 C 146.105469 207.488281 146.003906 207.589844 146.003906 207.714844 L 146.003906 212.195312 C 146.003906 212.320312 146.105469 212.417969 146.226562 212.417969 L 150.710938 212.417969 C 150.832031 212.417969 150.933594 212.320312 150.933594 212.195312 L 150.933594 207.714844 C 150.933594 207.589844 150.832031 207.488281 150.710938 207.488281 Z M 150.710938 207.488281 "/></g><g clip-rule="nonzero" clip-path="url(#eca61cb760)"><path style=" stroke:none;fill-rule:nonzero;fill:#000000;fill-opacity:1;" d="M 156.984375 207.488281 L 152.503906 207.488281 C 152.378906 207.488281 152.277344 207.589844 152.277344 207.714844 L 152.277344 212.195312 C 152.277344 212.320312 152.378906 212.417969 152.503906 212.417969 L 156.984375 212.417969 C 157.109375 212.417969 157.207031 212.320312 157.207031 212.195312 L 157.207031 207.714844 C 157.207031 207.589844 157.109375 207.488281 156.984375 207.488281 Z M 156.984375 207.488281 "/></g><g style="fill:#000000;fill-opacity:1;"><g transform="translate(90.786396, 212.876789)"><path style="stroke:none" d="M 38.046875 -58.453125 L 38.046875 -46.75 L 17.5625 -46.75 L 17.5625 -35.140625 L 36.484375 -35.140625 L 36.484375 -23.453125 L 17.5625 -23.453125 L 17.5625 0 L 4.25 0 L 4.25 -58.453125 Z M 38.046875 -58.453125 "/></g></g><g style="fill:#000000;fill-opacity:1;"><g transform="translate(171.95702, 206.690362)"><path style="stroke:none" d="M 3.046875 0 L 3.046875 -26.078125 L 12.046875 -26.078125 L 12.046875 -23.34375 L 12.15625 -23.34375 C 14.488281 -25.675781 16.976562 -26.84375 19.625 -26.84375 C 21.519531 -26.84375 23.296875 -26.453125 24.953125 -25.671875 C 26.617188 -24.890625 27.878906 -23.6875 28.734375 -22.0625 C 31.367188 -25.25 34.25 -26.84375 37.375 -26.84375 C 40.15625 -26.84375 42.539062 -26.0625 44.53125 -24.5 C 46.53125 -22.945312 47.53125 -20.507812 47.53125 -17.1875 L 47.53125 0 L 38.546875 0 L 38.546875 -14.75 C 38.546875 -16.132812 38.160156 -17.289062 37.390625 -18.21875 C 36.628906 -19.15625 35.488281 -19.625 33.96875 -19.625 C 32.644531 -19.625 31.632812 -19.222656 30.9375 -18.421875 C 30.238281 -17.628906 29.859375 -16.675781 29.796875 -15.5625 L 29.796875 0 L 20.796875 0 L 20.796875 -14.75 C 20.796875 -16.132812 20.410156 -17.289062 19.640625 -18.21875 C 18.878906 -19.15625 17.738281 -19.625 16.21875 -19.625 C 14.832031 -19.625 13.789062 -19.191406 13.09375 -18.328125 C 12.394531 -17.460938 12.046875 -16.4375 12.046875 -15.25 L 12.046875 0 Z M 3.046875 0 "/></g></g><g style="fill:#000000;fill-opacity:1;"><g transform="translate(218.990849, 206.690362)"><path style="stroke:none" d="M 14.390625 -26.84375 C 15.878906 -26.84375 17.351562 -26.671875 18.8125 -26.328125 C 20.269531 -25.992188 21.351562 -25.65625 22.0625 -25.3125 L 23.140625 -24.8125 L 20.1875 -18.90625 C 18.15625 -20 16.222656 -20.546875 14.390625 -20.546875 C 13.367188 -20.546875 12.644531 -20.429688 12.21875 -20.203125 C 11.800781 -19.984375 11.59375 -19.570312 11.59375 -18.96875 C 11.59375 -18.832031 11.609375 -18.695312 11.640625 -18.5625 C 11.671875 -18.425781 11.738281 -18.296875 11.84375 -18.171875 C 11.945312 -18.054688 12.039062 -17.957031 12.125 -17.875 C 12.207031 -17.789062 12.347656 -17.695312 12.546875 -17.59375 C 12.753906 -17.488281 12.914062 -17.410156 13.03125 -17.359375 C 13.15625 -17.304688 13.351562 -17.226562 13.625 -17.125 C 13.894531 -17.03125 14.097656 -16.957031 14.234375 -16.90625 C 14.367188 -16.851562 14.597656 -16.773438 14.921875 -16.671875 C 15.242188 -16.578125 15.488281 -16.507812 15.65625 -16.46875 C 16.707031 -16.164062 17.625 -15.828125 18.40625 -15.453125 C 19.1875 -15.078125 20.007812 -14.566406 20.875 -13.921875 C 21.738281 -13.285156 22.40625 -12.472656 22.875 -11.484375 C 23.351562 -10.503906 23.59375 -9.390625 23.59375 -8.140625 C 23.59375 -2.203125 19.472656 0.765625 11.234375 0.765625 C 9.367188 0.765625 7.597656 0.476562 5.921875 -0.09375 C 4.242188 -0.675781 3.03125 -1.253906 2.28125 -1.828125 L 1.171875 -2.75 L 4.828125 -8.890625 C 5.097656 -8.660156 5.453125 -8.382812 5.890625 -8.0625 C 6.335938 -7.738281 7.132812 -7.296875 8.28125 -6.734375 C 9.4375 -6.171875 10.4375 -5.890625 11.28125 -5.890625 C 13.144531 -5.890625 14.078125 -6.519531 14.078125 -7.78125 C 14.078125 -8.351562 13.835938 -8.800781 13.359375 -9.125 C 12.890625 -9.445312 12.085938 -9.8125 10.953125 -10.21875 C 9.816406 -10.625 8.925781 -11 8.28125 -11.34375 C 6.65625 -12.1875 5.367188 -13.140625 4.421875 -14.203125 C 3.472656 -15.273438 3 -16.691406 3 -18.453125 C 3 -21.097656 4.023438 -23.15625 6.078125 -24.625 C 8.128906 -26.101562 10.898438 -26.84375 14.390625 -26.84375 Z M 14.390625 -26.84375 "/></g></g><g style="fill:#000000;fill-opacity:1;"><g transform="translate(240.956752, 206.690362)"><path style="stroke:none" d="M 4.578125 -26.078125 L 4.578125 -35.796875 L 13.578125 -35.796875 L 13.578125 -26.078125 L 19.0625 -26.078125 L 19.0625 -19.21875 L 13.578125 -19.21875 L 13.578125 -10.9375 C 13.578125 -8.53125 14.253906 -7.328125 15.609375 -7.328125 C 15.953125 -7.328125 16.304688 -7.394531 16.671875 -7.53125 C 17.046875 -7.664062 17.335938 -7.800781 17.546875 -7.9375 L 17.84375 -8.140625 L 20.078125 -0.859375 C 18.148438 0.222656 15.945312 0.765625 13.46875 0.765625 C 11.78125 0.765625 10.320312 0.46875 9.09375 -0.125 C 7.875 -0.71875 6.953125 -1.515625 6.328125 -2.515625 C 5.703125 -3.515625 5.253906 -4.566406 4.984375 -5.671875 C 4.710938 -6.773438 4.578125 -7.953125 4.578125 -9.203125 L 4.578125 -19.21875 L 0.8125 -19.21875 L 0.8125 -26.078125 Z M 4.578125 -26.078125 "/></g></g><g style="fill:#000000;fill-opacity:1;"><g transform="translate(257.990434, 206.690362)"><path style="stroke:none" d="M 4.828125 -3.21875 C 2.390625 -5.882812 1.171875 -9.148438 1.171875 -13.015625 C 1.171875 -16.878906 2.390625 -20.148438 4.828125 -22.828125 C 7.265625 -25.503906 10.367188 -26.84375 14.140625 -26.84375 C 17.597656 -26.84375 20.441406 -25.757812 22.671875 -23.59375 L 22.671875 -26.078125 L 31.671875 -26.078125 L 31.671875 0 L 22.78125 0 L 22.78125 -2.953125 L 22.671875 -2.953125 C 20.441406 -0.472656 17.597656 0.765625 14.140625 0.765625 C 10.367188 0.765625 7.265625 -0.5625 4.828125 -3.21875 Z M 12.484375 -17.4375 C 11.316406 -16.28125 10.734375 -14.804688 10.734375 -13.015625 C 10.734375 -11.222656 11.289062 -9.757812 12.40625 -8.625 C 13.519531 -7.488281 14.992188 -6.921875 16.828125 -6.921875 C 18.585938 -6.921875 20.035156 -7.492188 21.171875 -8.640625 C 22.304688 -9.796875 22.875 -11.253906 22.875 -13.015625 C 22.875 -14.804688 22.289062 -16.28125 21.125 -17.4375 C 19.957031 -18.59375 18.523438 -19.171875 16.828125 -19.171875 C 15.097656 -19.171875 13.648438 -18.59375 12.484375 -17.4375 Z M 12.484375 -17.4375 "/></g></g><g style="fill:#000000;fill-opacity:1;"><g transform="translate(289.66825, 206.690362)"><path style="stroke:none" d="M 22.828125 -26.078125 L 33.203125 -26.078125 L 12.703125 13.21875 L 2.34375 13.21875 L 11.34375 -4.0625 L -1.015625 -26.078125 L 9.359375 -26.078125 L 16.625 -12.703125 Z M 22.828125 -26.078125 "/></g></g></g></svg>